HIERARCHY
ROOT cup1
{
	OFFSET 0.000000 0.000000 0.000000
	CHANNELS 6 Xposition Yposition Zposition Yrotation Xrotation Zrotation
	End Site
	{
		OFFSET 0.000000 0.000000 0.000000
	}
}
MOTION
Frames: 134
Frame Time: 0.008333334
1.560585 5.403208 2.411613 -17.522740 -38.716340 29.547440 
1.562066 5.402080 2.410377 -17.541560 -38.680690 29.578190 
1.561205 5.399964 2.410024 -18.013610 -38.358730 30.075220 
1.559330 5.397095 2.409003 -18.732450 -37.982120 30.783520 
1.555596 5.395109 2.409065 -19.410950 -37.607760 31.314430 
1.552208 5.395747 2.411146 -19.521580 -37.564390 31.556710 
1.548869 5.399890 2.417026 -18.464660 -37.862400 31.017380 
1.545893 5.407437 2.427193 -16.586980 -38.399480 29.728130 
1.542675 5.418108 2.440819 -14.002040 -39.208220 28.363120 
1.538524 5.429859 2.456380 -11.381710 -39.665500 26.701300 
1.533286 5.442602 2.473207 -9.361786 -39.755860 25.491160 
1.529451 5.454961 2.490846 -8.179260 -39.243500 24.835870 
1.525846 5.466606 2.504504 -7.577087 -38.255740 24.597430 
1.522671 5.473998 2.512398 -7.655670 -37.417050 24.815440 
1.521147 5.475749 2.512473 -8.276062 -36.872650 25.211890 
1.521790 5.474815 2.509583 -9.302307 -36.877440 26.015160 
1.522252 5.475040 2.507557 -9.918427 -36.709560 26.227440 
1.520069 5.476192 2.506941 -10.848510 -36.210240 26.658860 
1.517942 5.477588 2.508545 -11.840120 -35.423830 27.319220 
1.514904 5.479587 2.511691 -12.649440 -34.720760 28.186170 
1.510544 5.481734 2.516230 -13.349370 -33.916050 28.761860 
1.506469 5.483621 2.520689 -13.901550 -33.247990 29.202780 
1.501072 5.485396 2.526260 -14.368440 -32.817080 29.678590 
1.495771 5.487054 2.532011 -14.741700 -32.305940 30.098010 
1.491022 5.487336 2.537705 -15.018220 -31.561860 30.090030 
1.485369 5.488145 2.544979 -15.329590 -30.897830 30.420090 
1.479522 5.487914 2.552968 -15.508360 -30.230740 30.314570 
1.475317 5.487405 2.560933 -15.136470 -29.719020 30.064620 
1.472780 5.487142 2.567281 -14.490230 -29.301540 29.506080 
1.471319 5.486305 2.573335 -13.895360 -28.911680 28.874280 
1.470975 5.484580 2.578556 -13.417210 -28.679440 28.518960 
1.469425 5.482998 2.583044 -12.860930 -28.678070 28.216520 
1.467546 5.481549 2.585667 -12.409850 -28.778780 27.784160 
1.467631 5.480003 2.588569 -11.959630 -29.008910 27.579620 
1.468736 5.479038 2.590063 -11.381320 -29.160220 27.016570 
1.470367 5.477776 2.590126 -10.584500 -29.268890 26.410110 
1.473181 5.475516 2.589663 -9.883484 -29.390230 25.837530 
1.476840 5.471662 2.587783 -9.502838 -29.950870 25.698310 
1.480863 5.467913 2.585081 -8.668671 -30.524380 25.186620 
1.485403 5.462404 2.580773 -7.683167 -30.824040 24.280660 
1.490191 5.457271 2.574751 -6.782104 -31.574400 23.634290 
1.496915 5.451244 2.567213 -6.109100 -32.566590 23.223740 
1.500970 5.444849 2.560327 -5.265167 -32.997440 22.323850 
1.503068 5.440275 2.554927 -4.950226 -33.399870 22.059220 
1.503107 5.436857 2.551075 -5.077087 -33.317230 22.126790 
1.500278 5.435681 2.548594 -5.231628 -33.334050 22.272970 
1.496729 5.434149 2.546922 -5.818939 -33.277920 23.265900 
1.491291 5.432457 2.544400 -6.363831 -32.972140 23.776880 
1.486633 5.429731 2.540668 -7.167572 -32.957210 24.898370 
1.482445 5.425638 2.535413 -8.203186 -32.893100 25.957210 
1.477149 5.419221 2.528028 -9.566986 -32.771610 27.095510 
1.472807 5.411846 2.518845 -10.650790 -32.873870 28.400460 
1.467909 5.403235 2.509244 -11.784240 -32.916530 29.698640 
1.461672 5.394275 2.498302 -12.631100 -33.109560 31.000340 
1.455885 5.384904 2.488076 -12.909120 -33.867520 32.259780 
1.452165 5.374625 2.476256 -12.271610 -34.664060 32.142700 
1.451160 5.362837 2.462888 -11.331150 -36.173430 32.056530 
1.452299 5.352774 2.449166 -10.359990 -37.831910 31.706260 
1.452624 5.343634 2.435993 -9.636017 -39.209500 31.138270 
1.451217 5.338586 2.425124 -9.593933 -40.485660 31.200200 
1.448512 5.335922 2.417116 -9.410675 -41.179380 31.262770 
1.444747 5.336522 2.412590 -9.851013 -41.521180 31.761270 
1.440103 5.339741 2.412493 -10.428250 -41.647770 32.368270 
1.436154 5.345429 2.416255 -10.723940 -41.184510 32.662820 
1.433113 5.352348 2.421809 -10.888700 -41.038270 32.959610 
1.427492 5.359720 2.428686 -10.263890 -40.478360 32.565460 
1.419910 5.363254 2.434377 -9.796204 -40.491490 32.732010 
1.411441 5.366613 2.436768 -8.505005 -41.048680 32.196870 
1.404425 5.370255 2.437777 -6.873566 -41.699400 31.147420 
1.400431 5.375874 2.439106 -5.182495 -42.527160 30.191720 
1.397500 5.383788 2.441636 -2.995148 -43.077270 28.612950 
1.398538 5.392806 2.445330 -0.874725 -43.987270 27.232730 
1.399302 5.405847 2.450018 2.396498 -44.520940 24.697050 
1.402505 5.420256 2.455478 6.401945 -44.923830 21.177590 
1.408116 5.434941 2.460140 10.646950 -45.063480 17.877930 
1.418445 5.450487 2.464779 15.535600 -45.548860 14.116340 
1.431517 5.466016 2.468360 21.161120 -45.294530 9.431811 
1.449638 5.480790 2.469504 26.768390 -44.913510 4.763686 
1.470853 5.493645 2.469158 32.460580 -44.138060 -0.003697 
1.492726 5.505237 2.467236 37.963210 -43.046390 -4.828796 
1.514225 5.515226 2.465916 42.539920 -41.461730 -8.914246 
1.534682 5.524033 2.465079 46.482990 -40.094390 -12.366090 
1.553158 5.529797 2.462864 49.831750 -38.471710 -15.108490 
1.570480 5.534289 2.461238 53.092700 -37.014400 -17.770450 
1.588018 5.537149 2.458916 56.161340 -35.487270 -19.955170 
1.603787 5.539493 2.457492 59.515430 -33.662350 -22.550930 
1.620568 5.541461 2.455628 63.104660 -32.019320 -24.716890 
1.636050 5.544480 2.454724 66.679890 -29.601990 -27.074040 
1.652639 5.547464 2.454274 70.659720 -27.421970 -29.297700 
1.670809 5.551490 2.454036 74.625820 -24.439540 -31.472470 
1.689332 5.554809 2.455336 77.752140 -21.662450 -32.941930 
1.709806 5.558177 2.457483 80.556940 -18.576780 -34.137180 
1.729683 5.560831 2.459741 82.611590 -15.744170 -34.917970 
1.747518 5.563527 2.461635 84.192280 -13.579740 -35.244450 
1.762688 5.564764 2.462001 85.311330 -11.889710 -35.516910 
1.773940 5.564563 2.460237 86.329280 -10.704220 -35.799840 
1.782735 5.563266 2.458121 87.033770 -9.547150 -36.085780 
1.789775 5.561314 2.454153 87.809070 -8.774597 -36.507540 
1.795740 5.558423 2.450557 88.340240 -7.941589 -36.898040 
1.800930 5.556742 2.447048 89.006740 -7.305084 -37.290770 
1.806362 5.555149 2.444284 89.695490 -6.518799 -37.577480 
1.811907 5.554914 2.443952 90.147920 -5.769348 -37.710630 
1.816309 5.555629 2.444726 90.592190 -5.287720 -37.651950 
1.818694 5.555980 2.444944 91.019420 -4.693207 -37.828520 
1.819217 5.556044 2.445608 91.368480 -4.504089 -37.842220 
1.817596 5.554808 2.445139 91.480950 -4.394043 -37.859990 
1.815189 5.551928 2.444618 91.307650 -4.590240 -37.741390 
1.811678 5.549156 2.443451 91.117100 -4.972382 -37.625150 
1.806877 5.546465 2.441605 90.579290 -5.238403 -38.043730 
1.801369 5.544596 2.440105 90.065800 -6.028778 -37.928410 
1.795502 5.542828 2.439774 89.482820 -6.872772 -37.636870 
1.789566 5.541225 2.439043 88.473870 -7.594910 -37.603670 
1.782817 5.538923 2.437448 87.456860 -8.750580 -37.433200 
1.774257 5.537289 2.435637 86.015060 -10.264590 -37.059230 
1.765339 5.535632 2.432672 84.170940 -12.155330 -36.771300 
1.754377 5.532002 2.427409 81.815580 -14.648320 -36.178440 
1.742650 5.527455 2.421066 79.163760 -17.689060 -35.455140 
1.731216 5.521214 2.411100 75.711980 -20.921420 -34.407960 
1.719038 5.512401 2.399136 71.670480 -24.536800 -33.049500 
1.706603 5.500693 2.385179 67.050850 -28.349610 -31.072510 
1.693736 5.488229 2.370500 62.565060 -31.901920 -29.164150 
1.682118 5.474646 2.356165 58.162770 -35.008820 -27.413820 
1.671961 5.463616 2.343548 54.384270 -37.930270 -25.701290 
1.663216 5.456341 2.333313 50.601690 -40.120700 -24.235020 
1.655815 5.452367 2.328044 47.116310 -42.075650 -22.742920 
1.649423 5.452204 2.326154 43.373410 -43.620120 -20.869900 
1.643734 5.454422 2.328463 40.018390 -44.923490 -18.965970 
1.636978 5.457749 2.333649 36.134730 -45.570280 -16.631290 
1.629481 5.463106 2.341576 32.759560 -46.095340 -13.873080 
1.620104 5.471213 2.351422 29.502990 -46.238100 -10.881680 
1.607993 5.481628 2.366315 26.189190 -45.657990 -7.805939 
1.592929 5.492909 2.381896 23.130560 -44.814670 -4.844025 
1.575718 5.503270 2.398363 19.959720 -43.899720 -1.387268 
1.557760 5.511415 2.416482 16.958520 -42.667510 2.021638 
